<?xml version="1.0" standalone="no"?>
<!DOCTYPE svg PUBLIC "-//W3C//DTD SVG 20010904//EN"
 "http://www.w3.org/TR/2001/REC-SVG-20010904/DTD/svg10.dtd">
<svg version="1.0" xmlns="http://www.w3.org/2000/svg"
 width="206.000000pt" height="505.000000pt" viewBox="0 0 206.000000 505.000000"
 preserveAspectRatio="xMidYMid meet">

<g transform="translate(0.000000,505.000000) scale(0.100000,-0.100000)"
fill="#0000FF" stroke="none">
<path d="M0 2525 l0 -2525 1030 0 1030 0 0 2525 0 2525 -1030 0 -1030 0 0
-2525z m1066 1882 c9 -28 16 -33 52 -37 l42 -5 -34 -23 -35 -24 14 -39 c14
-40 7 -51 -15 -24 -21 25 -49 28 -77 6 -33 -26 -39 -21 -24 21 11 31 10 35
-19 59 -16 14 -30 27 -30 30 0 2 18 3 39 1 39 -4 40 -3 52 37 13 45 19 45 35
-2z m-296 -125 l45 -3 -34 -28 c-32 -27 -33 -30 -22 -61 15 -43 9 -47 -28 -19
l-31 23 -31 -23 c-17 -13 -32 -21 -35 -19 -2 3 2 19 9 37 11 32 11 34 -23 62
l-34 29 42 0 c25 0 44 5 47 13 2 6 10 26 16 42 l11 30 12 -40 c11 -38 14 -40
56 -43z m691 -2 c47 0 49 -10 8 -34 -20 -12 -28 -23 -25 -33 4 -8 9 -26 13
-41 l6 -26 -36 23 -37 22 -35 -27 c-40 -30 -41 -30 -19 22 15 36 15 39 -2 51
-62 41 -62 42 -13 43 45 0 46 1 59 43 l13 42 14 -42 c14 -41 17 -43 54 -43z
m-996 -220 c6 -28 10 -30 53 -30 l47 -1 -37 -30 -37 -30 15 -36 c8 -19 13 -37
11 -39 -2 -2 -19 7 -37 21 l-33 25 -35 -27 -35 -26 6 24 c4 13 10 33 12 44 4
14 -3 26 -25 40 -40 27 -38 35 9 35 36 0 40 3 51 35 13 40 25 38 35 -5z m1199
5 c6 -31 11 -35 39 -36 18 -1 38 -1 45 0 22 3 13 -14 -18 -32 -32 -20 -36 -31
-20 -73 15 -38 4 -42 -29 -10 l-29 28 -38 -28 -38 -29 7 25 c4 14 10 34 12 45
4 14 -3 26 -25 40 -39 26 -38 31 5 33 46 2 52 6 60 42 9 40 21 38 29 -5z
m-1236 -385 l47 0 -38 -25 c-32 -22 -36 -30 -31 -53 4 -15 11 -35 16 -45 7
-14 1 -12 -31 8 l-40 27 -27 -21 c-39 -30 -46 -26 -29 17 15 35 15 38 -2 49
-61 41 -61 42 -12 43 45 0 46 1 59 43 l13 42 14 -42 c14 -42 15 -43 61 -43z
m1328 38 c9 -30 14 -34 54 -38 l45 -5 -33 -24 c-35 -24 -35 -29 -15 -95 4 -16
-1 -14 -31 9 l-36 27 -35 -26 c-38 -29 -41 -26 -24 23 11 30 9 34 -22 61 l-34
29 46 1 c45 0 47 1 53 35 9 44 20 45 32 3z m-1291 -351 c9 -27 15 -32 45 -34
19 -1 39 -2 45 -2 5 -1 -7 -12 -27 -26 l-37 -25 14 -40 c16 -45 11 -48 -25
-20 -14 11 -29 20 -35 20 -5 0 -21 -9 -35 -20 -36 -28 -41 -25 -24 17 l16 37
-34 28 -33 27 41 1 c39 0 41 2 53 41 14 45 20 44 36 -4z m1200 0 c9 -28 15
-33 53 -37 l42 -5 -30 -20 c-33 -22 -34 -26 -21 -73 11 -37 6 -39 -29 -12 -31
25 -36 25 -71 -1 -31 -22 -35 -16 -18 28 9 25 7 30 -23 55 l-33 27 42 1 c40 0
43 2 54 40 14 44 18 44 34 -3z m-949 -250 c9 -28 16 -33 55 -37 l44 -5 -33
-24 c-26 -18 -32 -29 -28 -45 3 -11 9 -32 13 -45 l6 -24 -37 28 -36 27 -37
-28 -36 -27 6 24 c4 13 10 34 13 45 4 16 -2 27 -28 45 l-33 24 45 5 c42 5 46
7 54 42 11 42 16 41 32 -5z m752 -37 c50 -1 50 -2 -11 -43 -17 -11 -17 -15 -3
-54 15 -44 9 -56 -14 -27 -30 35 -48 36 -87 7 -29 -22 -35 -24 -30 -10 22 59
21 69 -14 98 l-34 28 46 1 c45 0 46 1 59 43 l13 42 14 -42 c14 -42 15 -43 61
-43z m-403 -60 c6 -28 10 -30 53 -30 l47 -1 -37 -30 -38 -31 15 -35 c9 -20 13
-38 11 -41 -3 -2 -20 8 -39 22 l-35 27 -30 -26 c-16 -14 -32 -25 -35 -25 -3 0
2 18 11 41 14 37 14 42 1 50 -9 4 -27 17 -40 28 l-24 20 47 1 c44 0 47 2 58
35 13 40 25 38 35 -5z m375 -1045 l0 -105 -265 0 -265 0 0 -95 0 -95 240 0
240 0 0 -105 0 -105 -240 0 -240 0 0 -110 0 -110 270 0 270 0 0 -110 0 -110
-405 0 -405 0 0 525 0 525 400 0 400 0 0 -105z"/>
</g>
</svg>
